<svg id="Capa_1" data-name="Capa 1" xmlns="http://www.w3.org/2000/svg" viewBox="0 0 1055.74 905.82"><defs><style>.cls-1{fill:#438ac9;stroke:#ffd203;stroke-miterlimit:10;}.cls-2,.cls-3{font-size:26.1px;font-family:Encode Sans;font-weight:700;}.cls-2{fill:#7fbeea;}.cls-3{fill:#7c7c7c;}</style></defs><title>Assets_TABLERO</title><polygon class="cls-1" points="155.97 370.6 91.63 407.75 91.63 407.83 91.63 481.74 91.63 482.06 155.97 519.21 220.32 482.06 220.32 481.73 220.32 407.85 220.32 407.75 155.97 370.6"/><polygon class="cls-1" points="155.97 374 94.57 409.45 94.57 409.53 94.57 480.05 94.57 480.36 155.97 515.81 217.38 480.36 217.38 480.04 217.38 409.54 217.38 409.45 155.97 374"/><polygon class="cls-1" points="284.67 370.6 220.32 407.75 220.32 407.83 220.32 481.74 220.32 482.06 284.67 519.21 349.01 482.06 349.01 481.73 349.01 407.85 349.01 407.75 284.67 370.6"/><polygon class="cls-1" points="284.67 374 223.26 409.45 223.26 409.53 223.26 480.05 223.26 480.36 284.67 515.81 346.07 480.36 346.07 480.04 346.07 409.54 346.07 409.45 284.67 374"/><polygon class="cls-1" points="413.36 370.6 349.01 407.75 349.01 407.83 349.01 481.74 349.01 482.06 413.36 519.21 477.71 482.06 477.71 481.73 477.71 407.85 477.71 407.75 413.36 370.6"/><polygon class="cls-1" points="413.36 374 351.96 409.45 351.96 409.53 351.96 480.05 351.96 480.36 413.36 515.81 474.77 480.36 474.77 480.04 474.77 409.54 474.77 409.45 413.36 374"/><polygon class="cls-1" points="542.06 370.6 477.71 407.75 477.71 407.83 477.71 481.74 477.71 482.06 542.06 519.21 606.4 482.06 606.4 481.73 606.4 407.85 606.4 407.75 542.06 370.6"/><polygon class="cls-1" points="542.06 374 480.65 409.45 480.65 409.53 480.65 480.05 480.65 480.36 542.06 515.81 603.46 480.36 603.46 480.04 603.46 409.54 603.46 409.45 542.06 374"/><polygon class="cls-1" points="670.75 370.6 606.4 407.75 606.4 407.83 606.4 481.74 606.4 482.06 670.75 519.21 735.1 482.06 735.1 481.73 735.1 407.85 735.1 407.75 670.75 370.6"/><polygon class="cls-1" points="670.75 374 609.35 409.45 609.35 409.53 609.35 480.05 609.35 480.36 670.75 515.81 732.16 480.36 732.16 480.04 732.16 409.54 732.16 409.45 670.75 374"/><polygon class="cls-1" points="799.45 370.6 735.1 407.75 735.1 407.83 735.1 481.74 735.1 482.06 799.45 519.21 863.79 482.06 863.79 481.73 863.79 407.85 863.79 407.75 799.45 370.6"/><polygon class="cls-1" points="799.45 374 738.04 409.45 738.04 409.53 738.04 480.05 738.04 480.36 799.45 515.81 860.85 480.36 860.85 480.04 860.85 409.54 860.85 409.45 799.45 374"/><polygon class="cls-1" points="928.14 370.6 863.79 407.75 863.79 407.83 863.79 481.74 863.79 482.06 928.14 519.21 992.49 482.06 992.49 481.73 992.49 407.85 992.49 407.75 928.14 370.6"/><polygon class="cls-1" points="928.14 374 866.74 409.45 866.74 409.53 866.74 480.05 866.74 480.36 928.14 515.81 989.55 480.36 989.55 480.04 989.55 409.54 989.55 409.45 928.14 374"/><polygon class="cls-1" points="220.32 258.96 155.97 296.11 155.97 296.19 155.97 370.09 155.97 370.41 220.32 407.56 284.67 370.41 284.67 370.08 284.67 296.2 284.67 296.11 220.32 258.96"/><polygon class="cls-1" points="220.32 262.36 158.91 297.81 158.91 297.88 158.91 368.41 158.91 368.71 220.32 404.17 281.73 368.71 281.73 368.4 281.73 297.9 281.73 297.81 220.32 262.36"/><polygon class="cls-1" points="349.01 258.96 284.67 296.11 284.67 296.19 284.67 370.09 284.67 370.41 349.01 407.56 413.36 370.41 413.36 370.08 413.36 296.2 413.36 296.11 349.01 258.96"/><polygon class="cls-1" points="349.01 262.36 287.61 297.81 287.61 297.88 287.61 368.41 287.61 368.71 349.01 404.17 410.42 368.71 410.42 368.4 410.42 297.9 410.42 297.81 349.01 262.36"/><polygon class="cls-1" points="477.71 258.96 413.36 296.11 413.36 296.19 413.36 370.09 413.36 370.41 477.71 407.56 542.06 370.41 542.06 370.08 542.06 296.2 542.06 296.11 477.71 258.96"/><polygon class="cls-1" points="477.71 262.36 416.3 297.81 416.3 297.88 416.3 368.41 416.3 368.71 477.71 404.17 539.12 368.71 539.12 368.4 539.12 297.9 539.12 297.81 477.71 262.36"/><polygon class="cls-1" points="606.4 258.96 542.06 296.11 542.06 296.19 542.06 370.09 542.06 370.41 606.4 407.56 670.75 370.41 670.75 370.08 670.75 296.2 670.75 296.11 606.4 258.96"/><polygon class="cls-1" points="606.4 262.36 545 297.81 545 297.88 545 368.41 545 368.71 606.4 404.17 667.81 368.71 667.81 368.4 667.81 297.9 667.81 297.81 606.4 262.36"/><polygon class="cls-1" points="735.1 258.96 670.75 296.11 670.75 296.19 670.75 370.09 670.75 370.41 735.1 407.56 799.45 370.41 799.45 370.08 799.45 296.2 799.45 296.11 735.1 258.96"/><polygon class="cls-1" points="735.1 262.36 673.69 297.81 673.69 297.88 673.69 368.41 673.69 368.71 735.1 404.17 796.51 368.71 796.51 368.4 796.51 297.9 796.51 297.81 735.1 262.36"/><polygon class="cls-1" points="863.79 258.96 799.45 296.11 799.45 296.19 799.45 370.09 799.45 370.41 863.79 407.56 928.14 370.41 928.14 370.08 928.14 296.2 928.14 296.11 863.79 258.96"/><polygon class="cls-1" points="863.79 262.36 802.39 297.81 802.39 297.88 802.39 368.41 802.39 368.71 863.79 404.17 925.2 368.71 925.2 368.4 925.2 297.9 925.2 297.81 863.79 262.36"/><polygon class="cls-1" points="220.32 482.18 155.97 519.33 155.97 519.41 155.97 593.31 155.97 593.63 220.32 630.78 284.67 593.63 284.67 593.3 284.67 519.42 284.67 519.33 220.32 482.18"/><polygon class="cls-1" points="220.32 485.58 158.91 521.03 158.91 521.1 158.91 591.63 158.91 591.93 220.32 627.39 281.73 591.93 281.73 591.62 281.73 521.12 281.73 521.03 220.32 485.58"/><polygon class="cls-1" points="349.01 482.18 284.67 519.33 284.67 519.41 284.67 593.31 284.67 593.63 349.01 630.78 413.36 593.63 413.36 593.3 413.36 519.42 413.36 519.33 349.01 482.18"/><polygon class="cls-1" points="349.01 485.58 287.61 521.03 287.61 521.1 287.61 591.63 287.61 591.93 349.01 627.39 410.42 591.93 410.42 591.62 410.42 521.12 410.42 521.03 349.01 485.58"/><polygon class="cls-1" points="477.71 482.18 413.36 519.33 413.36 519.41 413.36 593.31 413.36 593.63 477.71 630.78 542.06 593.63 542.06 593.3 542.06 519.42 542.06 519.33 477.71 482.18"/><polygon class="cls-1" points="477.71 485.58 416.3 521.03 416.3 521.1 416.3 591.63 416.3 591.93 477.71 627.39 539.12 591.93 539.12 591.62 539.12 521.12 539.12 521.03 477.71 485.58"/><polygon class="cls-1" points="606.4 482.18 542.06 519.33 542.06 519.41 542.06 593.31 542.06 593.63 606.4 630.78 670.75 593.63 670.75 593.3 670.75 519.42 670.75 519.33 606.4 482.18"/><polygon class="cls-1" points="606.4 485.58 545 521.03 545 521.1 545 591.63 545 591.93 606.4 627.39 667.81 591.93 667.81 591.62 667.81 521.12 667.81 521.03 606.4 485.58"/><polygon class="cls-1" points="735.1 482.18 670.75 519.33 670.75 519.41 670.75 593.31 670.75 593.63 735.1 630.78 799.45 593.63 799.45 593.3 799.45 519.42 799.45 519.33 735.1 482.18"/><polygon class="cls-1" points="735.1 485.58 673.69 521.03 673.69 521.1 673.69 591.63 673.69 591.93 735.1 627.39 796.51 591.93 796.51 591.62 796.51 521.12 796.51 521.03 735.1 485.58"/><polygon class="cls-1" points="863.79 482.18 799.45 519.33 799.45 519.41 799.45 593.31 799.45 593.63 863.79 630.78 928.14 593.63 928.14 593.3 928.14 519.42 928.14 519.33 863.79 482.18"/><polygon class="cls-1" points="863.79 485.58 802.39 521.03 802.39 521.1 802.39 591.63 802.39 591.93 863.79 627.39 925.2 591.93 925.2 591.62 925.2 521.12 925.2 521.03 863.79 485.58"/><polygon class="cls-1" points="284.67 147.49 220.32 184.64 220.32 184.72 220.32 258.62 220.32 258.94 284.67 296.09 349.01 258.94 349.01 258.61 349.01 184.73 349.01 184.64 284.67 147.49"/><polygon class="cls-1" points="284.67 150.88 223.26 186.34 223.26 186.41 223.26 256.93 223.26 257.24 284.67 292.69 346.07 257.24 346.07 256.92 346.07 186.42 346.07 186.34 284.67 150.88"/><polygon class="cls-1" points="413.36 147.49 349.01 184.64 349.01 184.72 349.01 258.62 349.01 258.94 413.36 296.09 477.71 258.94 477.71 258.61 477.71 184.73 477.71 184.64 413.36 147.49"/><polygon class="cls-1" points="413.36 150.88 351.96 186.34 351.96 186.41 351.96 256.93 351.96 257.24 413.36 292.69 474.77 257.24 474.77 256.92 474.77 186.42 474.77 186.34 413.36 150.88"/><polygon class="cls-1" points="542.06 147.49 477.71 184.64 477.71 184.72 477.71 258.62 477.71 258.94 542.06 296.09 606.4 258.94 606.4 258.61 606.4 184.73 606.4 184.64 542.06 147.49"/><polygon class="cls-1" points="542.06 150.88 480.65 186.34 480.65 186.41 480.65 256.93 480.65 257.24 542.06 292.69 603.46 257.24 603.46 256.92 603.46 186.42 603.46 186.34 542.06 150.88"/><polygon class="cls-1" points="670.75 147.49 606.4 184.64 606.4 184.72 606.4 258.62 606.4 258.94 670.75 296.09 735.1 258.94 735.1 258.61 735.1 184.73 735.1 184.64 670.75 147.49"/><polygon class="cls-1" points="670.75 150.88 609.35 186.34 609.35 186.41 609.35 256.93 609.35 257.24 670.75 292.69 732.16 257.24 732.16 256.92 732.16 186.42 732.16 186.34 670.75 150.88"/><polygon class="cls-1" points="799.45 147.49 735.1 184.64 735.1 184.72 735.1 258.62 735.1 258.94 799.45 296.09 863.79 258.94 863.79 258.61 863.79 184.73 863.79 184.64 799.45 147.49"/><polygon class="cls-1" points="799.45 150.88 738.04 186.34 738.04 186.41 738.04 256.93 738.04 257.24 799.45 292.69 860.85 257.24 860.85 256.92 860.85 186.42 860.85 186.34 799.45 150.88"/><polygon class="cls-1" points="284.72 593.64 220.38 630.79 220.38 630.87 220.38 704.77 220.38 705.1 284.72 742.25 349.07 705.1 349.07 704.76 349.07 630.88 349.07 630.79 284.72 593.64"/><polygon class="cls-1" points="284.72 597.04 223.32 632.49 223.32 632.57 223.32 703.09 223.32 703.4 284.72 738.85 346.13 703.4 346.13 703.08 346.13 632.58 346.13 632.49 284.72 597.04"/><polygon class="cls-1" points="413.42 593.64 349.07 630.79 349.07 630.87 349.07 704.77 349.07 705.1 413.42 742.25 477.76 705.1 477.76 704.76 477.76 630.88 477.76 630.79 413.42 593.64"/><polygon class="cls-1" points="413.42 597.04 352.01 632.49 352.01 632.57 352.01 703.09 352.01 703.4 413.42 738.85 474.82 703.4 474.82 703.08 474.82 632.58 474.82 632.49 413.42 597.04"/><polygon class="cls-1" points="542.11 593.64 477.76 630.79 477.76 630.87 477.76 704.77 477.76 705.1 542.11 742.25 606.46 705.1 606.46 704.76 606.46 630.88 606.46 630.79 542.11 593.64"/><polygon class="cls-1" points="542.11 597.04 480.71 632.49 480.71 632.57 480.71 703.09 480.71 703.4 542.11 738.85 603.52 703.4 603.52 703.08 603.52 632.58 603.52 632.49 542.11 597.04"/><polygon class="cls-1" points="670.81 593.64 606.46 630.79 606.46 630.87 606.46 704.77 606.46 705.1 670.81 742.25 735.15 705.1 735.15 704.76 735.15 630.88 735.15 630.79 670.81 593.64"/><polygon class="cls-1" points="670.81 597.04 609.4 632.49 609.4 632.57 609.4 703.09 609.4 703.4 670.81 738.85 732.21 703.4 732.21 703.08 732.21 632.58 732.21 632.49 670.81 597.04"/><polygon class="cls-1" points="799.5 593.64 735.15 630.79 735.15 630.87 735.15 704.77 735.15 705.1 799.5 742.25 863.85 705.1 863.85 704.76 863.85 630.88 863.85 630.79 799.5 593.64"/><polygon class="cls-1" points="799.5 597.04 738.1 632.49 738.1 632.57 738.1 703.09 738.1 703.4 799.5 738.85 860.91 703.4 860.91 703.08 860.91 632.58 860.91 632.49 799.5 597.04"/><polygon class="cls-1" points="349.01 36.16 284.67 73.31 284.67 73.39 284.67 147.29 284.67 147.61 349.01 184.76 413.36 147.61 413.36 147.28 413.36 73.4 413.36 73.31 349.01 36.16"/><polygon class="cls-1" points="349.01 39.55 287.61 75.01 287.61 75.08 287.61 145.61 287.61 145.91 349.01 181.37 410.42 145.91 410.42 145.6 410.42 75.1 410.42 75.01 349.01 39.55"/><polygon class="cls-1" points="477.71 36.16 413.36 73.31 413.36 73.39 413.36 147.29 413.36 147.61 477.71 184.76 542.06 147.61 542.06 147.28 542.06 73.4 542.06 73.31 477.71 36.16"/><polygon class="cls-1" points="477.71 39.55 416.3 75.01 416.3 75.08 416.3 145.61 416.3 145.91 477.71 181.37 539.12 145.91 539.12 145.6 539.12 75.1 539.12 75.01 477.71 39.55"/><polygon class="cls-1" points="606.4 36.16 542.06 73.31 542.06 73.39 542.06 147.29 542.06 147.61 606.4 184.76 670.75 147.61 670.75 147.28 670.75 73.4 670.75 73.31 606.4 36.16"/><polygon class="cls-1" points="606.4 39.55 545 75.01 545 75.08 545 145.61 545 145.91 606.4 181.37 667.81 145.91 667.81 145.6 667.81 75.1 667.81 75.01 606.4 39.55"/><polygon class="cls-1" points="735.1 36.16 670.75 73.31 670.75 73.39 670.75 147.29 670.75 147.61 735.1 184.76 799.45 147.61 799.45 147.28 799.45 73.4 799.45 73.31 735.1 36.16"/><polygon class="cls-1" points="735.1 39.55 673.69 75.01 673.69 75.08 673.69 145.61 673.69 145.91 735.1 181.37 796.51 145.91 796.51 145.6 796.51 75.1 796.51 75.01 735.1 39.55"/><polygon class="cls-1" points="349.07 705.06 284.72 742.21 284.72 742.28 284.72 816.19 284.72 816.51 349.07 853.66 413.42 816.51 413.42 816.18 413.42 742.3 413.42 742.21 349.07 705.06"/><polygon class="cls-1" points="349.07 708.45 287.66 743.9 287.66 743.98 287.66 814.5 287.66 814.81 349.07 850.26 410.48 814.81 410.48 814.49 410.48 743.99 410.48 743.9 349.07 708.45"/><polygon class="cls-1" points="477.76 705.06 413.42 742.21 413.42 742.28 413.42 816.19 413.42 816.51 477.76 853.66 542.11 816.51 542.11 816.18 542.11 742.3 542.11 742.21 477.76 705.06"/><polygon class="cls-1" points="477.76 708.45 416.36 743.9 416.36 743.98 416.36 814.5 416.36 814.81 477.76 850.26 539.17 814.81 539.17 814.49 539.17 743.99 539.17 743.9 477.76 708.45"/><polygon class="cls-1" points="606.46 705.06 542.11 742.21 542.11 742.28 542.11 816.19 542.11 816.51 606.46 853.66 670.81 816.51 670.81 816.18 670.81 742.3 670.81 742.21 606.46 705.06"/><polygon class="cls-1" points="606.46 708.45 545.05 743.9 545.05 743.98 545.05 814.5 545.05 814.81 606.46 850.26 667.87 814.81 667.87 814.49 667.87 743.99 667.87 743.9 606.46 708.45"/><polygon class="cls-1" points="735.15 705.06 670.81 742.21 670.81 742.28 670.81 816.19 670.81 816.51 735.15 853.66 799.5 816.51 799.5 816.18 799.5 742.3 799.5 742.21 735.15 705.06"/><polygon class="cls-1" points="735.15 708.45 673.75 743.9 673.75 743.98 673.75 814.5 673.75 814.81 735.15 850.26 796.56 814.81 796.56 814.49 796.56 743.99 796.56 743.9 735.15 708.45"/><text class="cls-2" transform="translate(336.09 110.46)">A</text><text class="cls-3" transform="translate(233.85 120.79)">1</text><text class="cls-3" transform="translate(179.13 235.72)">2</text><text class="cls-3" transform="translate(114.55 346.27)">3</text><text class="cls-3" transform="translate(51.06 454.63)">4</text><text class="cls-3" transform="translate(114.55 556.48)">5</text><text class="cls-3" transform="translate(184.6 673.6)">6</text><text class="cls-3" transform="translate(248.08 789.62)">7</text><text class="cls-2" transform="translate(403.5 221.79)">B</text><text class="cls-2" transform="translate(468.77 337.26)">C</text><text class="cls-2" transform="translate(531.56 454.63)">D</text><text class="cls-2" transform="translate(599.46 561.48)">E</text><text class="cls-2" transform="translate(665.81 673.94)">F</text><text class="cls-2" transform="translate(728.21 789.62)">G</text></svg>