<svg id="Capa_1" data-name="Capa 1" xmlns="http://www.w3.org/2000/svg" viewBox="0 0 156 156"><defs><style>.cls-1{fill:#e94e1b;}.cls-2{fill:#efeaee;stroke:#1d1d1b;}.cls-2,.cls-6{stroke-miterlimit:10;}.cls-3{fill:#951b81;}.cls-4{fill:#cdcccc;}.cls-5{fill:#3aaa35;}.cls-6{fill:#1d1d1b;stroke:#fff;}</style></defs><title>AssetsTodas las fichas</title><polygon class="cls-1" points="79.89 78.69 79.89 7 17.44 43.05 17.44 43.13 17.44 43.24 79.53 78.9 79.89 78.69"/><polygon class="cls-2" points="79.89 79.1 79.89 78.69 79.53 78.9 79.89 79.1"/><polygon class="cls-3" points="142.33 43.06 142.33 43.05 79.89 7 79.89 78.69 142.33 43.06"/><polygon class="cls-3" points="142.33 43.14 142.33 43.06 79.89 78.69 79.89 79.1 142.33 114.97 142.33 114.84 142.33 43.14"/><polygon class="cls-4" points="79.89 151.21 142.33 115.16 142.33 114.97 79.89 79.1 79.89 151.21"/><polygon class="cls-5" points="79.53 78.9 17.44 114.33 17.44 114.85 17.44 115.16 79.89 151.21 79.89 79.1 79.53 78.9"/><polygon class="cls-1" points="17.44 43.24 17.44 114.33 79.53 78.9 17.44 43.24"/><circle class="cls-6" cx="79.53" cy="78.9" r="27.75"/></svg>