<svg id="Capa_1" data-name="Capa 1" xmlns="http://www.w3.org/2000/svg" viewBox="0 0 156 156"><defs><style>.cls-1{fill:#cdcccc;}.cls-2{fill:#efeaee;}.cls-2,.cls-8{stroke:#1d1d1b;stroke-miterlimit:10;}.cls-3{fill:#3aaa35;}.cls-4{fill:#951b81;}.cls-5{fill:#e94e1b;}.cls-6{fill:#fcea10;}.cls-7{fill:#29235c;}.cls-8{fill:#fff;}.cls-9{fill:#1d1d1b;}</style></defs><title>AssetsTodas las fichas</title><polygon class="cls-1" points="79.41 79.32 79.41 7.62 16.97 43.68 16.97 43.75 16.97 43.86 79.06 79.52 79.41 79.32"/><polygon class="cls-2" points="79.41 79.73 79.41 79.32 79.06 79.52 79.41 79.73"/><polygon class="cls-3" points="141.86 43.68 141.86 43.68 79.41 7.62 79.41 79.32 141.86 43.68"/><polygon class="cls-4" points="141.86 43.77 141.86 43.68 79.41 79.32 79.41 79.73 141.86 115.59 141.86 115.46 141.86 43.77"/><polygon class="cls-5" points="79.41 151.84 141.86 115.78 141.86 115.59 79.41 79.73 79.41 151.84"/><polygon class="cls-6" points="79.06 79.52 16.97 114.95 16.97 115.47 16.97 115.78 79.41 151.84 79.41 79.73 79.06 79.52"/><polygon class="cls-7" points="16.97 43.86 16.97 114.95 79.06 79.52 16.97 43.86"/><circle class="cls-8" cx="79.06" cy="79.52" r="27.75"/><path class="cls-9" d="M70.51,77.89c-0.66,1-1.3,1.46-2.34.6a1.73,1.73,0,0,0-1.41-.36,2.6,2.6,0,0,0-1.31,1.22,1.4,1.4,0,0,0,.39,1.33,2.66,2.66,0,0,0,2,.31,14.22,14.22,0,0,0,2.7-2,13.71,13.71,0,0,0,1.41-1.33c0.44-.47.82-1,1.3-1.55l1.55,1.64c-2.1,1.69-4,3.37-6.11,4.89-1.38,1-2.8.49-4.05-.44s-1.3-2.29-1-3.63A3.29,3.29,0,0,1,66.4,76.2C68.07,75.85,69.29,76.92,70.51,77.89Z"/><path class="cls-9" d="M87.62,81.62C88.31,80.47,89,80.24,90,81a1.65,1.65,0,0,0,2.43-.23,1.37,1.37,0,0,0,0-2A1.65,1.65,0,0,0,90,78.61c-1.74,1.4-3.43,2.87-5.35,4.49l-1-1.6c1.79-1.46,3.67-3.16,5.73-4.62a3.31,3.31,0,0,1,4.53.75,3.42,3.42,0,0,1,0,4.4,3.54,3.54,0,0,1-4.56.72C88.71,82.43,88.21,82,87.62,81.62Z"/><path class="cls-9" d="M81.37,84.41l1.21,1.23C81,87.19,79.5,88.7,77.93,90.1a3.56,3.56,0,0,1-5.08-.46,3.73,3.73,0,0,1,.67-5.39l1.1,1.2c-0.18.25-.31,0.42-0.43,0.59a1.89,1.89,0,0,0,.29,2.67c0.74,0.68,1.75.52,2.63-.32C78.49,87.09,79.87,85.81,81.37,84.41Z"/><path class="cls-9" d="M79.53,81.49l1.34-1.21c1.54,1.63,3.15,3.12,4.51,4.82a3.67,3.67,0,0,1-.74,5.08,3.51,3.51,0,0,1-5-.66l1-1.14,0.68,0.42a1.75,1.75,0,0,0,2.43-.35,1.73,1.73,0,0,0,0-2.46c-1-1.15-2.14-2.24-3.21-3.35C80.29,82.32,80,82,79.53,81.49Z"/><path class="cls-9" d="M75.78,74c1.49-1.62,2.83-3.2,4.31-4.62a3.53,3.53,0,0,1,5.08.37c1.36,1.6,1.16,3.83-.65,5.46l-0.94-1.35c0,0.09,0,0,0-.07,0.91-1.4.91-2.33,0-3.08s-1.89-.48-3,0.73l-3.48,3.81Z"/><path class="cls-9" d="M78.45,70l-1.08,1a3.36,3.36,0,0,1-.52-0.24,1.74,1.74,0,0,0-2.63.24,1.82,1.82,0,0,0,.23,2.67c1.39,1.28,2.86,2.47,4.44,3.82l-1.34,1.4c-1.73-1.58-3.39-2.9-4.8-4.45a3.63,3.63,0,0,1,.62-5.18A3.55,3.55,0,0,1,78.45,70Z"/><path class="cls-9" d="M78.52,85.88L77.2,87.13l-5.41-5.68,1.35-1.25Z"/><path class="cls-9" d="M86.36,78L85,79.27l-5.44-5.73L81,72.36Z"/><path class="cls-9" d="M76.6,82.91l-1-1.14,5.84-5.18,1,1Z"/></svg>