<svg id="Capa_1" data-name="Capa 1" xmlns="http://www.w3.org/2000/svg" viewBox="0 0 156 156"><defs><style>.cls-1{fill:#29235c;}.cls-2{fill:#efeaee;}.cls-2,.cls-7{stroke:#1d1d1b;stroke-miterlimit:10;}.cls-3{fill:#fcea10;}.cls-4{fill:#951b81;}.cls-5{fill:#e94e1b;}.cls-6{fill:#3aaa35;}.cls-7{fill:#fff;}</style></defs><title>AssetsTodas las fichas</title><polygon class="cls-1" points="78.7 79.32 78.7 7.62 16.25 43.68 16.25 43.75 16.25 43.86 78.34 79.52 78.7 79.32"/><polygon class="cls-2" points="78.7 79.73 78.7 79.32 78.34 79.52 78.7 79.73"/><polygon class="cls-3" points="141.15 43.68 141.15 43.68 78.7 7.62 78.7 79.32 141.15 43.68"/><polygon class="cls-4" points="141.15 43.77 141.15 43.68 78.7 79.32 78.7 79.73 141.15 115.59 141.15 115.46 141.15 43.77"/><polygon class="cls-5" points="78.7 151.84 141.15 115.78 141.15 115.59 78.7 79.73 78.7 151.84"/><polygon class="cls-6" points="78.34 79.52 16.25 114.95 16.25 115.47 16.25 115.78 78.7 151.84 78.7 79.73 78.34 79.52"/><polygon class="cls-5" points="16.25 43.86 16.25 114.95 78.34 79.52 16.25 43.86"/><circle class="cls-7" cx="78.34" cy="79.32" r="27.75"/></svg>