<svg id="Capa_1" data-name="Capa 1" xmlns="http://www.w3.org/2000/svg" viewBox="0 0 156 156"><defs><style>.cls-1{fill:#e94e1b;}.cls-2{fill:#efeaee;}.cls-2,.cls-7{stroke:#1d1d1b;stroke-miterlimit:10;}.cls-3{fill:#fcea10;}.cls-4{fill:#3aaa35;}.cls-5{fill:#951b81;}.cls-6{fill:#cdcccc;}.cls-7{fill:#fff;}</style></defs><title>AssetsTodas las fichas</title><polygon class="cls-1" points="79.65 79.32 79.65 7.62 17.2 43.68 17.2 43.75 17.2 43.86 79.29 79.52 79.65 79.32"/><polygon class="cls-2" points="79.65 79.73 79.65 79.32 79.29 79.52 79.65 79.73"/><polygon class="cls-3" points="142.09 43.68 142.09 43.68 79.65 7.62 79.65 79.32 142.09 43.68"/><polygon class="cls-4" points="142.09 43.77 142.09 43.68 79.65 79.32 79.65 79.73 142.09 115.59 142.09 115.46 142.09 43.77"/><polygon class="cls-5" points="79.65 151.84 142.09 115.78 142.09 115.59 79.65 79.73 79.65 151.84"/><polygon class="cls-6" points="79.29 79.52 17.2 114.95 17.2 115.47 17.2 115.78 79.65 151.84 79.65 79.73 79.29 79.52"/><polygon class="cls-1" points="17.2 43.86 17.2 114.95 79.29 79.52 17.2 43.86"/><circle class="cls-7" cx="80" cy="79.52" r="27.75"/></svg>