<svg id="Capa_1" data-name="Capa 1" xmlns="http://www.w3.org/2000/svg" viewBox="0 0 156 156"><defs><style>.cls-1{fill:#29235c;}.cls-2{fill:#efeaee;}.cls-2,.cls-7{stroke:#1d1d1b;stroke-miterlimit:10;}.cls-3{fill:#fcea10;}.cls-4{fill:#951b81;}.cls-5{fill:#e94e1b;}.cls-6{fill:#3aaa35;}.cls-7{fill:#fff;}</style></defs><title>AssetsTodas las fichas</title><polygon class="cls-1" points="79.17 79.32 79.17 7.62 16.73 43.68 16.73 43.75 16.73 43.86 78.82 79.52 79.17 79.32"/><polygon class="cls-2" points="79.17 79.73 79.17 79.32 78.82 79.52 79.17 79.73"/><polygon class="cls-3" points="141.62 43.68 141.62 43.68 79.17 7.62 79.17 79.32 141.62 43.68"/><polygon class="cls-4" points="141.62 43.77 141.62 43.68 79.17 79.32 79.17 79.73 141.62 115.59 141.62 115.46 141.62 43.77"/><polygon class="cls-5" points="79.17 151.84 141.62 115.78 141.62 115.59 79.17 79.73 79.17 151.84"/><polygon class="cls-6" points="78.82 79.52 16.73 114.95 16.73 115.47 16.73 115.78 79.17 151.84 79.17 79.73 78.82 79.52"/><polygon class="cls-5" points="16.73 43.86 16.73 114.95 78.82 79.52 16.73 43.86"/><circle class="cls-7" cx="78.82" cy="79.32" r="27.75"/></svg>