<svg id="Capa_1" data-name="Capa 1" xmlns="http://www.w3.org/2000/svg" viewBox="0 0 156 156"><defs><style>.cls-1{fill:#3aaa35;}.cls-2{fill:#efeaee;}.cls-2,.cls-7{stroke:#1d1d1b;stroke-miterlimit:10;}.cls-3{fill:#fcea10;}.cls-4{fill:#e94e1b;}.cls-5{fill:#951b81;}.cls-6{fill:#29235c;}.cls-7{fill:#fff;}</style></defs><title>AssetsTodas las fichas</title><polygon class="cls-1" points="78.82 79.32 78.82 7.62 16.37 43.68 16.37 43.75 16.37 43.86 78.46 79.52 78.82 79.32"/><polygon class="cls-2" points="78.82 79.73 78.82 79.32 78.46 79.52 78.82 79.73"/><polygon class="cls-3" points="141.26 43.68 141.26 43.68 78.82 7.62 78.82 79.32 141.26 43.68"/><polygon class="cls-4" points="141.26 43.77 141.26 43.68 78.82 79.32 78.82 79.73 141.26 115.59 141.26 115.46 141.26 43.77"/><polygon class="cls-5" points="78.82 151.84 141.26 115.78 141.26 115.59 78.82 79.73 78.82 151.84"/><polygon class="cls-6" points="78.46 79.52 16.37 114.95 16.37 115.47 16.37 115.78 78.82 151.84 78.82 79.73 78.46 79.52"/><polygon class="cls-4" points="16.37 43.86 16.37 114.95 78.46 79.52 16.37 43.86"/><circle class="cls-7" cx="78.46" cy="79.32" r="27.75"/></svg>