<svg id="Capa_1" data-name="Capa 1" xmlns="http://www.w3.org/2000/svg" viewBox="0 0 156 156"><defs><style>.cls-1{fill:#29235c;}.cls-2{fill:#efeaee;}.cls-2,.cls-7{stroke:#1d1d1b;stroke-miterlimit:10;}.cls-3{fill:#951b81;}.cls-4{fill:#cdcccc;}.cls-5{fill:#3aaa35;}.cls-6{fill:#e94e1b;}.cls-7{fill:#fff;}</style></defs><title>AssetsTodas las fichas</title><polygon class="cls-1" points="79.53 79.32 79.53 7.62 17.08 43.68 17.08 43.75 17.08 43.86 79.17 79.52 79.53 79.32"/><polygon class="cls-2" points="79.53 79.73 79.53 79.32 79.17 79.52 79.53 79.73"/><polygon class="cls-1" points="141.97 43.68 141.97 43.68 79.53 7.62 79.53 79.32 141.97 43.68"/><polygon class="cls-3" points="141.97 43.77 141.97 43.68 79.53 79.32 79.53 79.73 141.97 115.59 141.97 115.46 141.97 43.77"/><polygon class="cls-4" points="79.53 151.84 141.97 115.78 141.97 115.59 79.53 79.73 79.53 151.84"/><polygon class="cls-5" points="79.17 79.52 17.08 114.95 17.08 115.47 17.08 115.78 79.53 151.84 79.53 79.73 79.17 79.52"/><polygon class="cls-6" points="17.08 43.86 17.08 114.95 79.17 79.52 17.08 43.86"/><circle class="cls-7" cx="79.17" cy="79.52" r="27.75"/></svg>