<svg id="Capa_1" data-name="Capa 1" xmlns="http://www.w3.org/2000/svg" viewBox="0 0 188.73 174.41"><defs><style>.cls-1{fill:#cdcccc;}.cls-2{fill:#efeaee;stroke:#1d1d1b;}.cls-2,.cls-8{stroke-miterlimit:10;}.cls-3{fill:#3aaa35;}.cls-4{fill:#951b81;}.cls-5{fill:#e94e1b;}.cls-6{fill:#fcea10;}.cls-7{fill:#29235c;}.cls-8{fill:#1d1d1b;stroke:#fff;}.cls-9{fill:#fff;}</style></defs><title>Assets_KAN_FickaQudakNegra</title><polygon class="cls-1" points="94.37 86.58 94.37 14.88 31.92 50.94 31.92 51.01 31.92 51.12 94.01 86.78 94.37 86.58"/><polygon class="cls-2" points="94.37 86.99 94.37 86.58 94.01 86.78 94.37 86.99"/><polygon class="cls-3" points="156.81 50.94 156.81 50.94 94.37 14.88 94.37 86.58 156.81 50.94"/><polygon class="cls-4" points="156.81 51.03 156.81 50.94 94.37 86.58 94.37 86.99 156.81 122.85 156.81 122.72 156.81 51.03"/><polygon class="cls-5" points="94.37 159.09 156.81 123.04 156.81 122.85 94.37 86.99 94.37 159.09"/><polygon class="cls-6" points="94.01 86.78 31.92 122.21 31.92 122.73 31.92 123.04 94.37 159.09 94.37 86.99 94.01 86.78"/><polygon class="cls-7" points="31.92 51.12 31.92 122.21 94.01 86.78 31.92 51.12"/><circle class="cls-8" cx="94.01" cy="86.78" r="27.75"/><path class="cls-9" d="M85.81,84.74c-0.66,1-1.3,1.46-2.34.6A1.73,1.73,0,0,0,82.06,85a2.6,2.6,0,0,0-1.31,1.22,1.4,1.4,0,0,0,.39,1.33,2.66,2.66,0,0,0,2,.31,14.22,14.22,0,0,0,2.7-2,13.71,13.71,0,0,0,1.41-1.33c0.44-.47.82-1,1.3-1.55l1.55,1.64C88,86.34,86,88,84,89.54c-1.38,1-2.8.49-4.05-.44s-1.3-2.29-1-3.63a3.29,3.29,0,0,1,2.78-2.41C83.36,82.7,84.58,83.78,85.81,84.74Z"/><path class="cls-9" d="M102.91,88.47c0.69-1.15,1.37-1.38,2.38-.61a1.65,1.65,0,0,0,2.43-.23,1.37,1.37,0,0,0,0-2,1.65,1.65,0,0,0-2.44-.18c-1.74,1.4-3.43,2.87-5.35,4.49l-1-1.6c1.79-1.46,3.67-3.16,5.73-4.62a3.31,3.31,0,0,1,4.53.75,3.42,3.42,0,0,1,0,4.4,3.54,3.54,0,0,1-4.56.72C104,89.28,103.5,88.88,102.91,88.47Z"/><path class="cls-9" d="M96.66,91.26l1.21,1.23c-1.61,1.55-3.08,3.06-4.65,4.45a3.56,3.56,0,0,1-5.08-.46,3.73,3.73,0,0,1,.67-5.39l1.1,1.2c-0.18.25-.31,0.42-0.43,0.59a1.89,1.89,0,0,0,.29,2.67c0.74,0.68,1.75.52,2.63-.32C93.78,93.94,95.16,92.66,96.66,91.26Z"/><path class="cls-9" d="M94.82,88.34l1.34-1.21c1.54,1.63,3.15,3.12,4.51,4.82A3.67,3.67,0,0,1,99.94,97a3.51,3.51,0,0,1-5-.66l1-1.14,0.68,0.42a1.75,1.75,0,0,0,2.43-.35,1.73,1.73,0,0,0,0-2.46c-1-1.15-2.14-2.24-3.21-3.35C95.58,89.17,95.3,88.85,94.82,88.34Z"/><path class="cls-9" d="M91.07,80.88c1.49-1.62,2.83-3.2,4.31-4.62a3.53,3.53,0,0,1,5.08.37c1.36,1.6,1.16,3.83-.65,5.46l-0.94-1.35c0,0.09,0,0,0-.07,0.91-1.4.91-2.33,0-3.08s-1.89-.48-3,0.73l-3.48,3.81Z"/><path class="cls-9" d="M93.74,76.84l-1.08,1a3.36,3.36,0,0,1-.52-0.24,1.74,1.74,0,0,0-2.63.24,1.82,1.82,0,0,0,.23,2.67c1.39,1.28,2.86,2.47,4.44,3.82l-1.34,1.4c-1.73-1.58-3.39-2.9-4.8-4.45a3.63,3.63,0,0,1,.62-5.18A3.55,3.55,0,0,1,93.74,76.84Z"/><path class="cls-9" d="M93.82,92.74L92.49,94,87.08,88.3,88.43,87Z"/><path class="cls-9" d="M101.65,84.88l-1.36,1.24-5.44-5.73,1.39-1.18Z"/><path class="cls-9" d="M91.89,89.76l-1-1.14,5.84-5.18,1,1Z"/></svg>