<svg id="Capa_1" data-name="Capa 1" xmlns="http://www.w3.org/2000/svg" viewBox="0 0 156 156"><defs><style>.cls-1{fill:#29235c;}.cls-2{fill:#efeaee;stroke:#1d1d1b;}.cls-2,.cls-7{stroke-miterlimit:10;}.cls-3{fill:#fcea10;}.cls-4{fill:#951b81;}.cls-5{fill:#e94e1b;}.cls-6{fill:#3aaa35;}.cls-7{fill:#1d1d1b;stroke:#fff;}</style></defs><title>AssetsTodas las fichas</title><polygon class="cls-1" points="79.17 78.69 79.17 7 16.73 43.05 16.73 43.13 16.73 43.24 78.82 78.9 79.17 78.69"/><polygon class="cls-2" points="79.17 79.1 79.17 78.69 78.82 78.9 79.17 79.1"/><polygon class="cls-3" points="141.62 43.06 141.62 43.05 79.17 7 79.17 78.69 141.62 43.06"/><polygon class="cls-4" points="141.62 43.14 141.62 43.06 79.17 78.69 79.17 79.1 141.62 114.97 141.62 114.84 141.62 43.14"/><polygon class="cls-5" points="79.17 151.21 141.62 115.16 141.62 114.97 79.17 79.1 79.17 151.21"/><polygon class="cls-6" points="78.82 78.9 16.73 114.33 16.73 114.85 16.73 115.16 79.17 151.21 79.17 79.1 78.82 78.9"/><polygon class="cls-5" points="16.73 43.24 16.73 114.33 78.82 78.9 16.73 43.24"/><circle class="cls-7" cx="78.82" cy="78.69" r="27.75"/></svg>