<svg id="Capa_1" data-name="Capa 1" xmlns="http://www.w3.org/2000/svg" viewBox="0 0 156 156"><defs><style>.cls-1{fill:#e94e1b;}.cls-2{fill:#efeaee;stroke:#1d1d1b;}.cls-2,.cls-6{stroke-miterlimit:10;}.cls-3{fill:#fcea10;}.cls-4{fill:#3aaa35;}.cls-5{fill:#cdcccc;}.cls-6{fill:#1d1d1b;stroke:#fff;}</style></defs><title>AssetsTodas las fichas</title><polygon class="cls-1" points="79.77 78.69 79.77 7 17.32 43.05 17.32 43.13 17.32 43.24 79.41 78.9 79.77 78.69"/><polygon class="cls-2" points="79.77 79.1 79.77 78.69 79.41 78.9 79.77 79.1"/><polygon class="cls-3" points="142.21 43.06 142.21 43.05 79.77 7 79.77 78.69 142.21 43.06"/><polygon class="cls-3" points="142.21 43.14 142.21 43.06 79.77 78.69 79.77 79.1 142.21 114.97 142.21 114.84 142.21 43.14"/><polygon class="cls-1" points="79.77 151.21 142.21 115.16 142.21 114.97 79.77 79.1 79.77 151.21"/><polygon class="cls-4" points="79.41 78.9 17.32 114.33 17.32 114.85 17.32 115.16 79.77 151.21 79.77 79.1 79.41 78.9"/><polygon class="cls-5" points="17.32 43.24 17.32 114.33 79.41 78.9 17.32 43.24"/><circle class="cls-6" cx="80.12" cy="78.9" r="27.75"/></svg>