<svg id="Capa_1" data-name="Capa 1" xmlns="http://www.w3.org/2000/svg" viewBox="0 0 156 156"><defs><style>.cls-1{fill:#29235c;}.cls-2{fill:#efeaee;stroke:#1d1d1b;}.cls-2,.cls-7{stroke-miterlimit:10;}.cls-3{fill:#951b81;}.cls-4{fill:#cdcccc;}.cls-5{fill:#3aaa35;}.cls-6{fill:#e94e1b;}.cls-7{fill:#1d1d1b;stroke:#fff;}</style></defs><title>AssetsTodas las fichas</title><polygon class="cls-1" points="79.53 78.69 79.53 7 17.08 43.05 17.08 43.13 17.08 43.24 79.17 78.9 79.53 78.69"/><polygon class="cls-2" points="79.53 79.1 79.53 78.69 79.17 78.9 79.53 79.1"/><polygon class="cls-1" points="141.97 43.06 141.97 43.05 79.53 7 79.53 78.69 141.97 43.06"/><polygon class="cls-3" points="141.97 43.14 141.97 43.06 79.53 78.69 79.53 79.1 141.97 114.97 141.97 114.84 141.97 43.14"/><polygon class="cls-4" points="79.53 151.21 141.97 115.16 141.97 114.97 79.53 79.1 79.53 151.21"/><polygon class="cls-5" points="79.17 78.9 17.08 114.33 17.08 114.85 17.08 115.16 79.53 151.21 79.53 79.1 79.17 78.9"/><polygon class="cls-6" points="17.08 43.24 17.08 114.33 79.17 78.9 17.08 43.24"/><circle class="cls-7" cx="79.17" cy="78.9" r="27.75"/></svg>