<svg id="Capa_1" data-name="Capa 1" xmlns="http://www.w3.org/2000/svg" viewBox="0 0 156 156"><defs><style>.cls-1{fill:#29235c;}.cls-2{fill:#efeaee;stroke:#1d1d1b;}.cls-2,.cls-7{stroke-miterlimit:10;}.cls-3{fill:#fcea10;}.cls-4{fill:#951b81;}.cls-5{fill:#e94e1b;}.cls-6{fill:#3aaa35;}.cls-7{fill:#1d1d1b;stroke:#fff;}</style></defs><title>AssetsTodas las fichas</title><polygon class="cls-1" points="78.7 78.69 78.7 7 16.25 43.05 16.25 43.13 16.25 43.24 78.34 78.9 78.7 78.69"/><polygon class="cls-2" points="78.7 79.1 78.7 78.69 78.34 78.9 78.7 79.1"/><polygon class="cls-3" points="141.15 43.06 141.15 43.05 78.7 7 78.7 78.69 141.15 43.06"/><polygon class="cls-4" points="141.15 43.14 141.15 43.06 78.7 78.69 78.7 79.1 141.15 114.97 141.15 114.84 141.15 43.14"/><polygon class="cls-5" points="78.7 151.21 141.15 115.16 141.15 114.97 78.7 79.1 78.7 151.21"/><polygon class="cls-6" points="78.34 78.9 16.25 114.33 16.25 114.85 16.25 115.16 78.7 151.21 78.7 79.1 78.34 78.9"/><polygon class="cls-5" points="16.25 43.24 16.25 114.33 78.34 78.9 16.25 43.24"/><circle class="cls-7" cx="78.34" cy="78.69" r="27.75"/></svg>