<svg id="Capa_1" data-name="Capa 1" xmlns="http://www.w3.org/2000/svg" viewBox="0 0 156 156"><defs><style>.cls-1{fill:#29235c;}.cls-2{fill:#efeaee;stroke:#1d1d1b;}.cls-2,.cls-7{stroke-miterlimit:10;}.cls-3{fill:#cdcccc;}.cls-4{fill:#951b81;}.cls-5{fill:#fcea10;}.cls-6{fill:#3aaa35;}.cls-7{fill:#1d1d1b;stroke:#fff;}</style></defs><title>AssetsTodas las fichas</title><polygon class="cls-1" points="79.29 78.69 79.29 7 16.85 43.05 16.85 43.13 16.85 43.24 78.94 78.9 79.29 78.69"/><polygon class="cls-2" points="79.29 79.1 79.29 78.69 78.94 78.9 79.29 79.1"/><polygon class="cls-3" points="141.74 43.06 141.74 43.05 79.29 7 79.29 78.69 141.74 43.06"/><polygon class="cls-4" points="141.74 43.14 141.74 43.06 79.29 78.69 79.29 79.1 141.74 114.97 141.74 114.84 141.74 43.14"/><polygon class="cls-5" points="79.29 151.21 141.74 115.16 141.74 114.97 79.29 79.1 79.29 151.21"/><polygon class="cls-6" points="78.94 78.9 16.85 114.33 16.85 114.85 16.85 115.16 79.29 151.21 79.29 79.1 78.94 78.9"/><polygon class="cls-5" points="16.85 43.24 16.85 114.33 78.94 78.9 16.85 43.24"/><circle class="cls-7" cx="78.94" cy="78.9" r="27.75"/></svg>