<svg id="Capa_1" data-name="Capa 1" xmlns="http://www.w3.org/2000/svg" viewBox="0 0 156 156"><defs><style>.cls-1{fill:#e94e1b;}.cls-2{fill:#efeaee;stroke:#1d1d1b;}.cls-2,.cls-7{stroke-miterlimit:10;}.cls-3{fill:#fcea10;}.cls-4{fill:#3aaa35;}.cls-5{fill:#951b81;}.cls-6{fill:#cdcccc;}.cls-7{fill:#1d1d1b;stroke:#fff;}</style></defs><title>AssetsTodas las fichas</title><polygon class="cls-1" points="79.65 78.69 79.65 7 17.2 43.05 17.2 43.13 17.2 43.24 79.29 78.9 79.65 78.69"/><polygon class="cls-2" points="79.65 79.1 79.65 78.69 79.29 78.9 79.65 79.1"/><polygon class="cls-3" points="142.09 43.06 142.09 43.05 79.65 7 79.65 78.69 142.09 43.06"/><polygon class="cls-4" points="142.09 43.14 142.09 43.06 79.65 78.69 79.65 79.1 142.09 114.97 142.09 114.84 142.09 43.14"/><polygon class="cls-5" points="79.65 151.21 142.09 115.16 142.09 114.97 79.65 79.1 79.65 151.21"/><polygon class="cls-6" points="79.29 78.9 17.2 114.33 17.2 114.85 17.2 115.16 79.65 151.21 79.65 79.1 79.29 78.9"/><polygon class="cls-1" points="17.2 43.24 17.2 114.33 79.29 78.9 17.2 43.24"/><circle class="cls-7" cx="80" cy="78.9" r="27.75"/></svg>