<svg id="Capa_1" data-name="Capa 1" xmlns="http://www.w3.org/2000/svg" viewBox="0 0 156 156"><defs><style>.cls-1{fill:#3aaa35;}.cls-2{fill:#efeaee;stroke:#1d1d1b;}.cls-2,.cls-6{stroke-miterlimit:10;}.cls-3{fill:#951b81;}.cls-4{fill:#e94e1b;}.cls-5{fill:#29235c;}.cls-6{fill:#1d1d1b;stroke:#fff;}</style></defs><title>AssetsTodas las fichas</title><polygon class="cls-1" points="79.06 78.69 79.06 7 16.61 43.05 16.61 43.13 16.61 43.24 78.7 78.9 79.06 78.69"/><polygon class="cls-2" points="79.06 79.1 79.06 78.69 78.7 78.9 79.06 79.1"/><polygon class="cls-1" points="141.5 43.06 141.5 43.05 79.06 7 79.06 78.69 141.5 43.06"/><polygon class="cls-3" points="141.5 43.14 141.5 43.06 79.06 78.69 79.06 79.1 141.5 114.97 141.5 114.84 141.5 43.14"/><polygon class="cls-4" points="79.06 151.21 141.5 115.16 141.5 114.97 79.06 79.1 79.06 151.21"/><polygon class="cls-5" points="78.7 78.9 16.61 114.33 16.61 114.85 16.61 115.16 79.06 151.21 79.06 79.1 78.7 78.9"/><polygon class="cls-4" points="16.61 43.24 16.61 114.33 78.7 78.9 16.61 43.24"/><circle class="cls-6" cx="79.41" cy="78.69" r="27.75"/></svg>